# xmcd
#
# Track frame offsets: 
#        150
#        14012
#        31155
#        51672
#        69858
#        86546
#        105259
#        123381
#        142446
#
# Disc length: 2174 seconds
#
# Revision: 0
# Processed by: cddbd v1.5.2PL0 Copyright (c) Steve Scherf et al.
# Submitted via: ExactAudioCopy v1.0b1
#
DISCID=7b087c09
DTITLE=Claude Dubois - Duos
DYEAR=2009
DGENRE=Chanson
TTITLE0=J'ai souvenir encore -Isabelle Boulay
TTITLE1=L'infidèle - Patrick Bruel
TTITLE2=Laisser l'été avoir 15 ans - Natasha St-Peir
TTITLE3=Femme de rêve-Corneille
TTITLE4=Comme un million de gens-Lynda Lemay
TTITLE5=Femme de société-Garou
TTITLE6=Le Labrador-Gilles Vigneau Gilles desjardins
TTITLE7=Chasse-Galerie-Garou Erice Lapointe
TTITLE8=Si Dieu existe- Céline Dion
EXTD=
EXTT0=
EXTT1=
EXTT2=
EXTT3=
EXTT4=
EXTT5=
EXTT6=
EXTT7=
EXTT8=
PLAYORDER=
